<svg xmlns="http://www.w3.org/2000/svg" width="628" height="300" viewBox="0 0 628 300" role="img" aria-labelledby="t">
  <title id="t">Backend systems in Go — Services that ship as a single static binary with no runtime dependencies. SQLite with full-text search, subprocess isolation over versioned contracts, systemd deployment.</title>
  <defs>
    <linearGradient id="bgc1l" x1="0" y1="0" x2="1" y2="1">
      <stop offset="0" stop-color="#eef1f5"/><stop offset="0.55" stop-color="#e6eaf0"/>
      <stop offset="1" stop-color="#dfe4ec"/>
    </linearGradient>
    <linearGradient id="redc1l" x1="0" y1="0" x2="1" y2="0">
      <stop offset="0" stop-color="#c1121f" stop-opacity="0.25"/>
      <stop offset="0.5" stop-color="#c1121f"/>
      <stop offset="1" stop-color="#c1121f" stop-opacity="0.25"/>
    </linearGradient>
    <pattern id="scanc1l" width="4" height="4" patternUnits="userSpaceOnUse">
      <rect width="4" height="1.4" fill="#39506b" fill-opacity="0.03"/>
    </pattern>
  </defs>
  <rect width="628" height="300" fill="url(#bgc1l)"/>
  <rect width="628" height="300" fill="url(#scanc1l)"/>

  <g stroke="#c1121f" stroke-width="2.0" fill="none" opacity="0.9">
    <path d="M10 28 L10 10 L28 10"/><path d="M600 10 L618 10 L618 28"/>
    <path d="M10 272 L10 290 L28 290"/><path d="M600 290 L618 290 L618 272"/>
  </g>

  <rect x="0" y="0" width="628" height="3" fill="url(#redc1l)"/>
  <g fill="#c1121f"><rect x="36" y="40" width="6" height="24"/></g>
  <text x="54" y="60" font-family="Consolas, 'DejaVu Sans Mono', 'Courier New', monospace" font-size="26" font-weight="700" fill="#111820" letter-spacing="1.6">BACKEND SYSTEMS IN GO</text>
  <line x1="36" y1="82" x2="592" y2="82" stroke="#8fa2bb" stroke-width="1.4" opacity="0.8"/>
  <text x="36" y="116" font-family="Consolas, 'DejaVu Sans Mono', 'Courier New', monospace" font-size="20" fill="#33414f">Services that ship as a single static</text>
  <text x="36" y="146" font-family="Consolas, 'DejaVu Sans Mono', 'Courier New', monospace" font-size="20" fill="#33414f">binary with no runtime dependencies.</text>
  <text x="36" y="176" font-family="Consolas, 'DejaVu Sans Mono', 'Courier New', monospace" font-size="20" fill="#33414f">SQLite with full-text search, subprocess</text>
  <text x="36" y="206" font-family="Consolas, 'DejaVu Sans Mono', 'Courier New', monospace" font-size="20" fill="#33414f">isolation over versioned contracts,</text>
  <text x="36" y="236" font-family="Consolas, 'DejaVu Sans Mono', 'Courier New', monospace" font-size="20" fill="#33414f">systemd deployment.</text>
</svg>